<?xml version="1.0" encoding="iso-8859-1"?>
<!-- Generator: Adobe Illustrator 16.0.0, SVG Export Plug-In . SVG Version: 6.00 Build 0)  -->
<!DOCTYPE svg PUBLIC "-//W3C//DTD SVG 1.1//EN" "http://www.w3.org/Graphics/SVG/1.1/DTD/svg11.dtd">
<svg version="1.1" id="Capa_1" xmlns="http://www.w3.org/2000/svg" xmlns:xlink="http://www.w3.org/1999/xlink" x="0px" y="0px"
	 width="265.171px" height="265.171px" viewBox="0 0 265.171 265.171" style="enable-background:new 0 0 265.171 265.171;"
	 xml:space="preserve">
<g>
	<path d="M176.37,129.737c4.393-6.778,5.92-14.605,5.92-21.96c0-5.206-1.832-9.576-5.058-13.194
		c3.386-1.391,6.608-3.384,8.616-5.392c4.797-4.801,2.576-9.407-1.628-13.631c-4.216-4.198-8.832-6.406-13.629-1.615
		c-2.701,2.699-5.397,7.598-6.548,12.136c-8.572-3.266-19.524-4.823-31.475-4.823c-11.948,0-22.891,1.557-31.454,4.823
		c-1.146-4.539-3.849-9.438-6.548-12.136c-4.799-4.791-9.421-2.583-13.629,1.615c-4.209,4.224-6.422,8.831-1.627,13.631
		c2.006,2.008,5.23,4.001,8.622,5.392c-3.212,3.619-5.071,7.989-5.071,13.194c0,7.355,1.521,15.182,5.919,21.96
		C37.125,134.254,0,146.448,0,160.879c0,18.258,59.364,33.058,132.585,33.058c73.225,0,132.586-14.8,132.586-33.058
		C265.171,146.457,228.026,134.246,176.37,129.737z M174.438,177.422c-0.26,0.101-0.496,0.185-0.781,0.284
		c-0.488,5.627-5.197,10.035-10.964,10.035h-9.935c-4.629,0-8.616-2.882-10.227-6.978c-6.424,0.061-13.503,0.061-19.947,0
		c-1.611,4.096-5.588,6.978-10.239,6.978h-9.946c-5.738,0-10.474-4.408-10.94-10.035c-0.284-0.1-0.507-0.184-0.793-0.284
		c-39.371-3.887-67.059-13.072-67.059-23.804c0-10.572,26.894-19.621,65.313-23.612c0.083,0.129,0.167,0.253,0.247,0.381
		c-29.841,3.69-50.231,11.057-50.231,19.597c0,7.405,15.38,13.945,38.93,17.961c-1.381-2.521-2.092-5.435-2.092-8.732
		c0-1.69,0.21-3.386,0.533-5.065c-8.51-2.769-13.589-6.119-13.589-9.773c0-5.314,10.652-10.007,27.074-13.021
		c0.896,1.206,1.855,2.376,2.959,3.498c4.994-4.031,11.273-7.381,18.679-9.622c-0.08-0.533-0.18-0.99-0.238-1.595
		c-0.924-10.6,2.435-26.886,8.299-27.403c5.857-0.503,11.986,14.952,12.922,25.551c0.016,0.165,0,0.298,0.016,0.465
		c0.036,0,0.061,0,0.104,0s0.076,0.006,0.112,0.006c0.028-0.165,0-0.299,0.028-0.471c0.922-10.6,7.053-26.054,12.924-25.551
		c5.835,0.517,9.217,16.811,8.279,27.403c-0.044,0.605-0.16,1.062-0.213,1.603c7.39,2.232,13.662,5.582,18.659,9.613
		c1.105-1.126,2.071-2.292,2.961-3.502c16.435,3.018,27.106,7.702,27.106,13.024c0,3.654-5.089,7.028-13.601,9.773
		c0.309,1.703,0.524,3.419,0.524,5.065c0,3.298-0.705,6.212-2.104,8.74c23.552-4.023,38.948-10.563,38.948-17.969
		c0-8.54-20.435-15.906-50.245-19.597c0.088-0.128,0.168-0.252,0.244-0.381c38.431,3.991,65.333,13.04,65.333,23.612
		C241.52,164.35,213.824,173.535,174.438,177.422z M139.55,114.676c0.43-5.021,3.038-8.9,5.803-8.654
		c2.786,0.24,4.686,4.504,4.232,9.53c-0.429,5.021-3.033,8.893-5.811,8.658C140.985,123.965,139.098,119.695,139.55,114.676z
		 M115.574,115.551c-0.441-5.025,1.461-9.297,4.224-9.53c2.779-0.246,5.386,3.633,5.814,8.654c0.441,5.025-1.46,9.295-4.228,9.533
		C118.622,124.452,116.022,120.572,115.574,115.551z M132.569,124.053c-32.037,0-51.245,18.978-51.245,35.159
		c0,8.572,6.466,12.575,16.721,14.431c-0.637,0.898-1.102,1.948-1.102,3.126c0,3.038,2.451,5.498,5.49,5.498h9.942
		c3.048,0,5.49-2.46,5.49-5.498c0-0.549-0.165-1.05-0.314-1.547c4.749,0.108,9.79,0.108,15.018,0.108c5.242,0,10.291,0,15.04-0.108
		c-0.173,0.497-0.325,0.998-0.325,1.547c0,3.038,2.453,5.498,5.49,5.498h9.951c3.045,0,5.49-2.46,5.49-5.498
		c0-1.178-0.461-2.228-1.106-3.126c10.259-1.855,16.731-5.858,16.731-14.431C183.841,143.03,164.612,124.053,132.569,124.053z
		 M108.501,146.06c-4.987,0.89-9.414-0.777-9.947-3.702c-0.517-2.93,3.102-6.02,8.069-6.894c4.972-0.882,9.414,0.782,9.938,3.703
		C117.081,142.104,113.462,145.178,108.501,146.06z M156.654,146.06c-4.97-0.873-8.588-3.955-8.067-6.893
		c0.525-2.921,4.97-4.585,9.946-3.703c4.981,0.874,8.601,3.964,8.071,6.894C166.083,145.282,161.636,146.949,156.654,146.06z"/>
</g>
<g>
</g>
<g>
</g>
<g>
</g>
<g>
</g>
<g>
</g>
<g>
</g>
<g>
</g>
<g>
</g>
<g>
</g>
<g>
</g>
<g>
</g>
<g>
</g>
<g>
</g>
<g>
</g>
<g>
</g>
</svg>
